<svg width="180" height="180" viewBox="0 0 180 180" fill="none" xmlns="http://www.w3.org/2000/svg">
<path d="M81.7363 27.6235C101.584 24.6002 124.988 32.8178 139.075 46.9304C159.054 66.6734 159.058 98.2703 138.583 117.745C122.605 132.942 106.504 137.222 85.0135 137.04C83.5745 138.632 81.7899 140.359 80.2653 141.906C74.8869 147.01 56.5189 156.924 50.0704 153.171C49.5449 152.442 48.8308 151.345 49.2966 150.507C53.9476 142.143 55.4389 137.584 55.714 127.852C2.74334 97.0156 26.267 34.5509 81.7363 27.6235ZM57.6205 147.406C65.832 144.758 75.1624 140.23 80.4837 133.142C81.129 132.48 82.1178 131.401 82.7899 130.834C102.687 131.435 118.108 128.389 133.357 114.355C151.703 97.4725 152.871 69.8304 135.242 51.9356C123.88 40.3193 108.85 33.8712 92.6506 33.3079C90.8841 33.2595 84.3738 33.3382 82.9123 33.6597C39.6618 38.3451 12.4898 84.5829 49.7776 116.438C51.9783 118.318 60.1339 122.889 60.8623 124.537C63.8337 131.258 60.5327 140.99 57.6205 147.406Z" fill="#FAF7F2"/>
<path d="M57.6205 147.406C65.832 144.758 75.1624 140.23 80.4837 133.142C81.129 132.48 82.1178 131.401 82.7899 130.834C102.687 131.435 118.108 128.389 133.357 114.355C151.703 97.4725 152.871 69.8304 135.242 51.9356C123.88 40.3193 108.85 33.8712 92.6506 33.3079C90.8841 33.2595 84.3738 33.3382 82.9123 33.6597C39.6618 38.3451 12.4898 84.5829 49.7776 116.438C51.9783 118.318 60.1339 122.889 60.8623 124.537C63.8337 131.258 60.5327 140.99 57.6205 147.406Z" fill="#FAF7F2"/>
</svg>
