<svg width="1550" height="293" viewBox="0 0 1550 293" fill="none" xmlns="http://www.w3.org/2000/svg">
<g clip-path="url(#clip0_13_54)">
<path d="M128.551 1.16702C174.44 -5.82098 228.549 13.173 261.119 45.793C307.311 91.427 307.321 164.46 259.982 209.473C223.039 244.601 185.814 254.493 136.128 254.072C132.801 257.752 128.675 261.743 125.15 265.319C112.715 277.118 70.248 300.033 55.339 291.357C54.124 289.673 52.473 287.137 53.55 285.199C64.303 265.868 67.751 255.33 68.387 232.836C-54.082 161.56 0.305008 17.179 128.551 1.16702ZM72.795 278.033C91.78 271.911 113.352 261.445 125.655 245.062C127.147 243.533 129.433 241.039 130.987 239.727C176.989 241.118 212.643 234.076 247.899 201.639C290.315 162.616 293.015 98.724 252.256 57.362C225.987 30.512 191.239 15.608 153.785 14.306C149.701 14.194 134.649 14.376 131.27 15.119C31.274 25.949 -31.548 132.823 54.662 206.454C59.75 210.799 78.606 221.363 80.29 225.172C87.16 240.708 79.528 263.202 72.795 278.033Z" fill="#F9F6F1"/>
<path d="M879.59 50.5039C896.72 50.8929 931.91 49.1499 946.62 52.1309C952.33 53.2859 957.52 55.4429 961.97 59.2539C972 67.8419 973.51 79.6119 974.47 92.0419C975.19 101.346 977.33 154.911 972.85 159.853C970.43 162.53 965.82 162.167 962.51 162.232C948.4 162.176 892.47 164.646 883.11 160.519C882.01 160.03 880.52 159.187 880.04 158.042C877.18 151.059 878.03 98.58 879.46 88.938C880.56 81.48 882.99 74.989 885.91 68.11C880 67.865 876.92 68.7149 873.63 63.3659C872.19 57.2989 874.15 53.2629 879.59 50.5039ZM948.55 144.839L955 144.571C956.89 141.715 955.84 122.628 955.92 117.819C956.87 63.007 953.19 67.2009 904.42 67.9429C894.28 84.5359 898.58 123.783 897.95 145.266C915.92 144.735 930.78 144.779 948.55 144.839Z" fill="#F9F6F1"/>
<path d="M1505.95 49.6479C1549.03 50.3739 1548.32 80.3899 1547.88 115.283C1547.81 121.099 1548.72 154.557 1547.27 157.643C1541.6 163.333 1529.05 162.655 1521.31 162.654C1513.54 162.653 1502.59 163.941 1496 159.668C1491.19 156.549 1492.19 150.022 1495.6 146.042C1502.36 142.668 1520.65 144.681 1529.02 145.068C1527.97 130.146 1529.05 114.545 1528.9 99.549C1528.76 86.47 1529.88 73.691 1515.78 67.86C1499.37 64.471 1482.66 73.2869 1471.02 84.2899C1470.75 94.7919 1472.99 155.383 1469.29 159.775C1467.52 161.884 1464.72 162.771 1462.04 162.939C1459.51 163.098 1457.28 162.591 1455.38 160.846C1452.56 158.251 1452.48 154.662 1452.24 151.087C1451.07 132.421 1452.15 113.097 1452.21 94.368C1452.24 83.131 1451.1 70.8579 1452.23 59.7619C1452.5 57.1689 1453.44 54.382 1455.22 52.434C1456.63 50.905 1458.57 49.916 1460.65 49.856C1463.27 49.781 1465.99 51.1409 1467.81 52.9539C1471.34 56.4629 1470.9 61.008 1470.92 65.608C1483.26 56.953 1490.62 51.2529 1505.95 49.6479Z" fill="#F9F6F1"/>
<path d="M1332.67 50.397C1349.46 50.08 1382.03 48.486 1396.9 53.355C1405.17 56.066 1411.75 61.139 1415.66 69.02C1418.15 74.044 1419.49 79.771 1420.09 85.322C1420.96 93.2 1421.94 153.321 1420.34 157.677C1419.59 159.723 1418.22 161.306 1416.23 162.212C1413.84 163.298 1410.24 163.677 1407.76 162.689C1395.22 157.678 1406.26 93.867 1399.17 77.663C1396.95 72.61 1393.55 70.704 1388.71 68.788C1381.01 67.617 1368.1 67.933 1359.88 67.955C1348.88 92.525 1357.84 153.632 1352.92 160.809C1348.05 162.907 1321.52 163.337 1317.57 160.254C1315.74 157.578 1315.37 155.89 1315.45 152.61C1315.69 142.314 1328.8 144.681 1335.74 145.217C1334.88 124.374 1334.07 87.2 1341.3 69.027C1337.05 65.685 1325.46 72.348 1327.31 56.663C1327.71 53.241 1330.2 52.24 1332.67 50.397Z" fill="#F9F6F1"/>
<path d="M1201.94 50.4169C1218.33 50.1159 1258.82 48.6579 1272.4 53.3999C1280.72 56.3019 1286.89 61.9479 1290.64 69.9249C1293.03 75.0019 1294.33 80.6009 1294.97 86.1529C1295.98 94.8459 1296.97 151.752 1294.81 157.363C1293.98 159.541 1292.61 161.335 1290.42 162.274C1287.96 163.33 1284.68 163.174 1282.24 162.136C1279.55 160.996 1277.95 159.099 1277.21 156.318C1275.82 151.135 1276.58 144.673 1276.65 139.305C1276.85 121.426 1279.69 92.2579 1273.67 76.3349C1265.22 64.1089 1242.52 67.8199 1228.73 67.8739C1220.27 86.8609 1223.93 116.864 1224.13 137.877C1224.2 144.649 1224.88 151.967 1222.61 158.462C1222.11 159.899 1220.64 161.311 1219.25 161.93C1216.43 163.191 1212.78 163.295 1209.9 162.144C1207.68 161.25 1206.36 159.611 1205.52 157.396C1202.99 150.83 1203.85 96.7059 1205.14 87.4849C1206.11 80.5379 1208.23 74.4449 1211.03 68.0519C1209.69 68.0649 1203.73 68.0799 1202.86 67.7209C1192.99 63.6289 1193.64 55.0179 1201.94 50.4169Z" fill="#F9F6F1"/>
<path d="M531.973 49.699C587.395 50.973 579.116 83.277 579.444 127.421C579.487 133.328 579.251 139.391 579.145 145.31C582.116 145.226 586.287 144.689 589.117 145.513C591.839 146.306 595.017 149.39 596.265 151.858C596.841 152.997 597.251 155.048 596.852 156.28C596.121 158.535 594.605 159.829 592.475 160.789C588.237 162.697 500.096 163.063 496.03 161.255C493.203 159.997 492.407 157.23 491.382 154.549C492.107 151.25 492.302 149.31 494.484 146.656C499.262 143.301 550.757 145.09 561.056 145.185C560.398 125.485 561.152 105.503 560.282 86.224C559.311 64.703 536.082 65.172 520.698 67.942C516.185 68.754 497.955 74.319 495.323 70.542C481.687 50.979 521.346 50.281 531.973 49.699Z" fill="#F9F6F1"/>
<path d="M1050.75 24.047C1066.64 24.725 1063.13 39.006 1062.84 51.181C1081.34 51.267 1100.08 50.193 1118.51 51.31C1129.15 51.991 1129.63 64.511 1125.6 71.603C1118.45 84.151 1088.66 157.125 1080.48 162.788C1077.12 163.312 1073.69 163.3 1070.58 161.777C1069.14 161.073 1067.77 159.62 1067.27 158.09C1064.7 150.289 1101.17 80.396 1107.6 68.073C1096.76 67.783 1052.98 69.8 1046.71 65.793C1042.33 59.053 1044.65 40.756 1044.33 32.019C1044.21 28.744 1047.96 25.81 1050.75 24.047Z" fill="#F9F6F1"/>
<path d="M724.831 24.178C739.204 26.13 735.699 39.658 735.425 51.135C752.116 51.263 768.676 50.159 785.409 50.693C796.881 50.049 803.715 60.239 798.268 70.453C790.363 85.257 761.618 156.355 753.463 162.475C750.354 163.017 747.241 162.978 744.302 161.683C742.228 160.769 740.782 159.459 740.048 157.28C737.55 149.873 774.477 79.47 780.166 68.07C761.311 67.53 741.778 69.314 723.195 67.033C718.093 66.342 717.188 58.589 717.547 54.551C718.554 43.245 711.705 29.74 724.831 24.178Z" fill="#F9F6F1"/>
<path d="M613.672 50.55C627.707 51.027 641.752 51.15 655.792 50.918C667.202 50.688 677.983 50.248 689.745 50.618C698.792 50.902 702.87 59.658 696.948 66.56C695.312 68.467 687.121 68.158 684.134 68.189C676.382 87.074 679.239 134.231 678.846 157.476C675.148 166.973 658.132 166.826 660.013 144.534C662.179 118.87 654.656 92.548 667.23 68.047C657.378 67.725 611.945 69.858 607.611 65.7C605.494 61.848 606.047 57.95 607.008 53.841C609.287 51.568 610.628 51.379 613.672 50.55Z" fill="#F9F6F1"/>
<path d="M407.89 50.576C431.13 45.908 465.679 51.412 468.079 81.064C470.081 105.811 468.805 132.084 468.662 156.945C468.625 163.433 455.854 165.838 450.291 157.175C449.592 138.085 452.856 98.433 449.25 82.563C442.448 52.625 397.909 75.904 388.329 69.404C386.252 67.994 385.468 65.825 385.069 63.432C384.677 61.081 384.964 58.914 386.447 56.987C390.665 51.51 401.505 51.292 407.89 50.576Z" fill="#F9F6F1"/>
<path d="M1009.56 50.205C1013.45 50.075 1021.56 50.48 1021.96 55.223C1022.73 64.423 1024.81 107.994 1021.74 114.223C1019.16 116.874 1017.64 117.092 1014.14 118.079C1010.54 117.594 1007.84 116.661 1005.52 113.909C1002.18 106.303 1003.59 71.263 1004.08 61.047C1004.34 55.713 1005.57 53.445 1009.56 50.205Z" fill="#F9F6F1"/>
<path d="M1157.78 50.186C1160.91 50.171 1168.4 50.7289 1168.89 54.9839C1171.03 73.7609 1170.38 94.005 1169.59 112.91C1169.52 114.67 1165.16 116.857 1163.75 117.627L1163.39 117.628C1158.84 117.629 1156.18 117.664 1152.87 114.34C1149.96 109.182 1151.33 62.8379 1152.39 54.6159C1152.59 53.0569 1156.2 51.117 1157.78 50.186Z" fill="#F9F6F1"/>
<path d="M1182.4 231.06C1206.37 232.54 1200.4 257.728 1200.7 276.047C1192.99 276.369 1183.27 277.709 1177.12 272.631L1177.13 270.888C1182.08 267.609 1186.23 268.516 1192.04 268.974L1192.15 264.217C1192.29 257.217 1193.66 244.136 1189.04 239.32C1179.87 237.111 1176.15 240.444 1169.94 246.347C1169.83 251.072 1169.96 273.894 1167.97 275.937C1164.56 276.401 1165.79 276.704 1163.04 274.897C1160.75 270.537 1161.12 238.334 1161.87 233.253C1164.3 231.717 1163.62 232.17 1166.84 232.157C1171.29 234.705 1167.25 233.573 1169.57 237.694C1171.19 237.266 1176.19 232.818 1182.4 231.06Z" fill="#F9F6F1"/>
<path d="M722.003 232.075C747.91 230.555 763.946 227.738 761.674 260.484C761.348 265.083 763.303 276.15 757.705 277.493C748.466 272.112 756.384 252.446 751.724 240.587C745.486 238.993 740.824 239.067 734.445 238.932C733.666 250.47 734.045 264.327 734.209 276.016C730.4 276.284 723.23 276.891 719.531 275.936C718.285 275.616 718.09 274.169 717.464 272.651C718.774 269.796 721.44 269.395 724.982 267.482C726.409 264.892 726.194 244.617 726.297 239.862L722.65 237.838C721.036 235.264 721.582 235.795 722.003 232.075Z" fill="#F9F6F1"/>
<path d="M643.633 232.085C664.911 230.406 684.979 229.381 683.081 256.659C682.681 262.4 683.559 268.427 682.513 274.33C680.58 276.565 681.543 275.953 678.509 276.624C669.73 272.144 678.739 249.64 671.814 240.571C666.496 238.692 662.255 237.454 657.406 240.558C653.483 246.9 655.789 266.056 655.477 276.008C651.236 276.208 642.397 277.469 639.836 274.193C640.108 269.97 644.605 268.998 646.328 266.989C648.566 264.379 647.901 244.075 647.984 240.071C646.832 239.126 645.46 239.068 643.945 238.798C642.898 235.984 643.167 235.104 643.633 232.085Z" fill="#F9F6F1"/>
<path d="M407.866 232.035C417.549 232.002 434.9 230.173 442.831 236.521C449.647 241.975 450.398 272.087 445.517 277.102C442.812 277.135 443.333 276.915 440.656 275.359C436.215 266.29 444.73 249.118 436.542 240.033C431.891 238.74 425.961 237.162 422.044 240.456C418.105 246.804 420.433 267.231 420.672 276.067C418.763 276.174 416.853 276.258 414.943 276.319C410.383 276.445 406.989 276.326 403.419 272.953L405.464 270.257L403.935 270.927C406.795 268.665 409.195 268.697 412.777 268.287C412.237 257.957 413.261 250.096 412.956 240.055C407.549 237.761 408.199 237.319 407.866 232.035Z" fill="#F9F6F1"/>
<path d="M1341.3 232.064C1351.55 231.166 1360.14 231.622 1365.96 241.632C1376.21 259.253 1362.34 280.04 1342.12 276.829C1338.09 276.189 1335.12 275.387 1333.03 271.7C1337.86 265.222 1346.85 273.697 1358.27 264.804C1359.18 262.822 1360.2 259.567 1360.56 257.379C1361.41 252.443 1360.18 247.372 1357.15 243.377C1353.47 238.444 1346.79 235.656 1341.5 239.898C1338.95 241.914 1337.28 244.846 1336.86 248.075C1340.03 255.323 1348.38 251.071 1351.61 255.158C1349.31 260.415 1342.93 260.865 1337.97 259.46C1335.12 258.62 1332.73 256.662 1331.34 254.03C1326.36 244.499 1332.81 236.241 1341.3 232.064Z" fill="#F9F6F1"/>
<path d="M822.655 253.205C824.974 248.182 829.862 232.033 836.36 231.76C839.4 237.618 830.57 253.122 827.869 258.478C831.55 262.748 836.98 268.016 837.91 273.327C836.7 276.508 837.24 275.497 833.79 277.631C826.873 271.667 819.619 259.405 812.18 251.584C810.364 258.93 808.017 272.585 801.983 277.17L800.559 276.893C796.508 270.664 804.46 252.783 807.356 246.233C802.868 241.17 798.082 237.95 801.304 231.318C809.041 232.444 817.506 246.311 822.655 253.205Z" fill="#F9F6F1"/>
<path d="M533.297 231.228L536.992 232.494C544.443 240.587 527.811 275.476 559.855 269.048C578.281 265.352 564.978 243.695 571.784 232.518C574.39 231.292 573.285 231.446 576.327 232.216C578.391 235.169 577.803 236.116 578.029 240.104C578.242 248.246 579.02 261.06 574.268 267.819C563.066 283.642 533.806 278.927 531.48 258.25C530.786 252.08 529.923 236.209 533.297 231.228Z" fill="#F9F6F1"/>
<path d="M1460.76 231.452C1474.35 234.473 1468.46 261.335 1477.83 267.441C1489.84 265.575 1482.72 239.398 1488.19 232.319C1490.76 231.598 1489.73 231.544 1492.27 232.823C1494.93 238.012 1493.44 251.074 1493.08 257.186C1491.62 263.079 1490.68 266.193 1486.2 270.529C1481.11 275.449 1463.6 283.355 1458.09 276.822L1458.86 274.756C1461.46 271.985 1465.11 271.585 1468.87 270.707C1467.03 261.336 1457.17 238.568 1460.76 231.452Z" fill="#F9F6F1"/>
<path d="M949.97 232.144C959.59 231.361 975.4 231.863 985.47 231.877C986.81 240.998 988.19 262.313 982.92 269.93C979.29 275.184 976.69 275.443 971.02 276.754C969.01 276.634 966.64 276.095 964.65 275.704C963.32 272.999 963.68 273.892 964.06 270.597C968.39 267.477 969.54 270.155 975.11 267.249C979.1 263.077 977.3 247.079 977.94 239.245C972.22 239.234 952.76 241.154 949.32 237.476C948.74 235.099 949.11 234.464 949.97 232.144Z" fill="#F9F6F1"/>
<path d="M592.754 232.054C603.948 231.491 617.403 232.131 628.768 232.399C628.827 237.757 629.017 243.374 629.096 248.716C629.317 263.671 630.19 273.275 613.141 276.709C610.055 276.395 608.103 275.662 606.237 273.408C608.842 267.204 621.044 269.983 620.831 259.709C620.701 253.411 620.295 245.295 621.162 239.147C612.582 239.035 601.504 240.942 594.115 238.447C591.923 235.853 592.597 236.11 592.754 232.054Z" fill="#F9F6F1"/>
<path d="M904.78 220.219C907.34 220.521 907.66 220.697 909.87 222.041C911.74 224.748 911.19 227.218 910.94 230.489C914.95 235.465 934.39 228.68 936 233.897C937.67 239.278 921.07 271.837 918.58 276.636C915.31 276.277 914.59 276.713 912.15 274.889C912.16 268.938 924.62 246.861 928.12 239.134L903.78 239.301C903.5 234.301 902.39 224.336 904.78 220.219Z" fill="#F9F6F1"/>
<path d="M1211.65 232.041C1218.72 231.461 1238.97 230.661 1245.54 233.067C1247.59 233.821 1247.72 235.085 1248.2 236.795C1246.06 240.786 1245.86 237.585 1241.29 240.629C1239.88 247.085 1240.57 266.805 1240.67 274.531C1239.37 276.07 1238.19 276.289 1236.28 276.936C1228.6 274.076 1233.08 246.087 1234.31 239.512C1229.6 237.897 1216.02 241.782 1211.4 237.697C1210.56 234.332 1210.66 235.587 1211.65 232.041Z" fill="#F9F6F1"/>
<path d="M1415.32 232.054C1435.74 230.846 1444.08 230.237 1445.16 254.611C1445.43 260.673 1446.17 269.618 1444.21 275.247C1441.37 276.902 1440.92 276.303 1437.28 276.153C1436.68 266.447 1438.39 257.042 1436.86 247.494C1434.11 230.338 1412.72 245.132 1406.45 238.372C1407.92 234.048 1411.37 232.937 1415.32 232.054Z" fill="#F9F6F1"/>
<path d="M1139.81 230.617C1140.97 231.153 1141.92 231.921 1142.96 232.676C1146 240.615 1144.82 273.976 1144.6 284.145C1144.51 288.497 1142.92 289.266 1140.12 291.629C1139.14 290.969 1137.93 289.968 1136.97 289.22C1134.21 282.891 1135.35 245.272 1135.89 236.032C1136.07 232.871 1137.66 232.186 1139.81 230.617Z" fill="#F9F6F1"/>
<path d="M1289.31 232.006C1310.02 230.31 1316.92 234.199 1316.66 256.332C1316.58 262.276 1317.97 269.403 1316.12 275.174C1314.1 277.025 1312.5 276.614 1309.35 276.95C1307.6 272.571 1309.6 251.894 1308.95 245.986C1307.9 236.57 1288.07 241.738 1282.32 237.709L1282.34 235.233C1284.48 233.489 1286.72 232.898 1289.31 232.006Z" fill="#F9F6F1"/>
<path d="M468.955 232.171C473.713 231.985 482.688 232.046 486.622 234.426C493.835 238.792 495.016 269.944 491.534 275.562C488.264 277.028 488.409 276.49 484.589 276.095C484.316 266.439 485.352 254.258 484.473 245.02C483.459 234.355 465.609 242.809 460.234 239.175C459.214 236.268 459.214 237.359 459.838 234.546C462.324 232.807 465.88 232.616 468.955 232.171Z" fill="#F9F6F1"/>
<path d="M1535.97 231.063L1547.55 231.943C1549.69 241.906 1552.23 264.581 1544.84 272.836C1541.49 276.577 1536.72 276.493 1532.07 276.653C1529.68 275.744 1529.37 275.212 1527.83 273.109C1529.07 268.125 1537.55 269.617 1538.74 267.158C1541.09 262.31 1540.28 244.989 1540.13 240.04C1536.06 238.524 1533.11 239.959 1531.89 234.703C1533.4 231.716 1532.59 232.656 1535.97 231.063Z" fill="#F9F6F1"/>
<path d="M852.3 232.287C856.33 231.858 862.31 231.114 865.87 232.954C867.79 238.087 867.94 250.582 867.79 256.366C867.48 268.896 866.22 274.702 853.49 276.728C850.46 276.366 847.3 276.318 846.87 272.849C848.96 269.461 854.98 269.68 856.45 267.434C860.03 261.994 859.39 251.02 859.25 244.727C859.05 235.944 856.65 241.765 851.93 237.488C851.27 235.033 851.41 234.693 852.3 232.287Z" fill="#F9F6F1"/>
<path d="M1063.18 237.245C1068.92 236.204 1074.45 239.877 1075.72 245.568C1076.99 251.261 1073.54 256.941 1067.91 258.439C1064.06 259.463 1059.96 258.296 1057.22 255.397C1054.48 252.499 1053.56 248.334 1054.8 244.546C1056.05 240.759 1059.26 237.957 1063.18 237.245Z" fill="#F9F6F1"/>
<path d="M951.54 248.075C953.51 248.235 954.18 248.499 955.99 249.102C960 254.23 960.2 285.778 956.15 291.16C944.47 289.491 950.36 269.168 949.62 260.462C949.38 257.55 950.31 250.821 951.54 248.075Z" fill="#F9F6F1"/>
<path d="M1509.13 231.539C1512.62 231.925 1513.21 231.397 1515.57 233.479C1517.17 239.209 1517.15 270.42 1515.95 276.653C1513.3 276.684 1512.77 276.61 1510.19 275.981C1507.32 271.75 1508.7 238.496 1509.13 231.539Z" fill="#F9F6F1"/>
<path d="M508.953 231.533C512.441 231.924 512.77 231.364 515.014 233.502C515.757 240.036 516.497 272.001 514.379 277.073C511.786 276.678 510.601 276.705 508.736 274.918C507.101 269.819 507.399 236.52 508.953 231.533Z" fill="#F9F6F1"/>
<path d="M595.868 248.035C597.726 248.459 598.248 248.899 599.784 249.912C602.248 255.566 602.797 286.449 598.789 291.436C597.52 291.025 596.147 290.357 594.917 289.807C591.468 284.157 591.465 253.104 595.868 248.035Z" fill="#F9F6F1"/>
<path d="M1410.47 248.12C1412.48 248.503 1413.17 248.915 1414.98 249.797C1417.78 254.077 1418.31 273.562 1414.88 277.453C1412.63 277.062 1412.08 277.027 1410.05 275.914C1406.46 270.501 1407.17 253.354 1410.47 248.12Z" fill="#F9F6F1"/>
<path d="M551.782 231.442C555.475 231.929 554.746 231.322 557.22 233.362C560.133 240.003 559.38 255.052 557.21 261.795L554.346 261.725C548.347 258.045 549.906 237.336 551.782 231.442Z" fill="#F9F6F1"/>
<path d="M1265.95 230.719L1268.8 232.222C1272.35 238.583 1272.46 254.194 1267.1 260.057C1266.1 259.535 1264.88 258.722 1263.9 258.106C1260.59 251.819 1260.51 236.184 1265.95 230.719Z" fill="#F9F6F1"/>
<path d="M777.122 231.483C777.932 231.514 780.688 231.625 781.2 231.903C787.262 235.194 785.055 254.902 783.183 259.319C780.753 259.111 779.58 259.231 777.867 257.519C774.431 251.371 775.827 238.303 777.122 231.483Z" fill="#F9F6F1"/>
<path d="M883.41 231.366C883.92 231.43 886.18 231.736 886.5 231.889C892.63 234.82 891.07 253.991 889.1 259.115C886.5 258.922 886.17 258.873 884.03 257.4C880.25 251.218 882.34 238.375 883.41 231.366Z" fill="#F9F6F1"/>
</g>
<defs>
<clipPath id="clip0_13_54">
<rect width="1550" height="293" fill="white"/>
</clipPath>
</defs>
</svg>
