<svg width="1907" height="613" viewBox="0 0 1907 613" fill="none" xmlns="http://www.w3.org/2000/svg">
<path d="M298.551 166.167C344.44 159.179 398.549 178.173 431.119 210.793C477.311 256.427 477.321 329.46 429.982 374.473C393.039 409.601 355.814 419.493 306.128 419.072C302.801 422.752 298.675 426.743 295.15 430.319C282.715 442.118 240.248 465.033 225.339 456.357C224.124 454.673 222.473 452.137 223.55 450.199C234.303 430.868 237.751 420.33 238.387 397.836C115.918 326.56 170.305 182.179 298.551 166.167ZM242.795 443.033C261.78 436.911 283.352 426.445 295.655 410.062C297.147 408.533 299.433 406.039 300.987 404.727C346.989 406.118 382.643 399.076 417.899 366.639C460.315 327.616 463.015 263.724 422.256 222.362C395.987 195.512 361.239 180.608 323.785 179.306C319.701 179.194 304.649 179.376 301.27 180.119C201.274 190.949 138.452 297.823 224.662 371.454C229.75 375.799 248.606 386.363 250.29 390.172C257.16 405.708 249.528 428.202 242.795 443.033Z" fill="#F9F6F1"/>
<path d="M1049.59 215.504C1066.72 215.893 1101.91 214.15 1116.62 217.131C1122.33 218.286 1127.52 220.443 1131.97 224.254C1142 232.842 1143.51 244.612 1144.47 257.042C1145.19 266.346 1147.33 319.911 1142.85 324.853C1140.43 327.53 1135.82 327.167 1132.51 327.232C1118.4 327.176 1062.47 329.646 1053.11 325.519C1052.01 325.03 1050.52 324.187 1050.04 323.042C1047.18 316.059 1048.03 263.58 1049.46 253.938C1050.56 246.48 1052.99 239.989 1055.91 233.11C1050 232.865 1046.92 233.715 1043.63 228.366C1042.19 222.299 1044.15 218.263 1049.59 215.504ZM1118.55 309.839L1125 309.571C1126.89 306.715 1125.84 287.628 1125.92 282.819C1126.87 228.007 1123.19 232.201 1074.42 232.943C1064.28 249.536 1068.58 288.783 1067.95 310.266C1085.92 309.735 1100.78 309.779 1118.55 309.839Z" fill="#F9F6F1"/>
<path d="M1675.95 214.648C1719.03 215.374 1718.32 245.39 1717.88 280.283C1717.81 286.099 1718.72 319.557 1717.27 322.643C1711.6 328.333 1699.05 327.655 1691.31 327.654C1683.54 327.653 1672.59 328.941 1666 324.668C1661.19 321.549 1662.19 315.022 1665.6 311.042C1672.36 307.668 1690.65 309.681 1699.02 310.068C1697.97 295.146 1699.05 279.545 1698.9 264.549C1698.76 251.47 1699.88 238.691 1685.78 232.86C1669.37 229.471 1652.66 238.287 1641.02 249.29C1640.75 259.792 1642.99 320.383 1639.29 324.775C1637.52 326.884 1634.72 327.771 1632.04 327.939C1629.51 328.098 1627.28 327.591 1625.38 325.846C1622.56 323.251 1622.48 319.662 1622.24 316.087C1621.07 297.421 1622.15 278.097 1622.21 259.368C1622.24 248.131 1621.1 235.858 1622.23 224.762C1622.5 222.169 1623.44 219.382 1625.22 217.434C1626.63 215.905 1628.57 214.916 1630.65 214.856C1633.27 214.781 1635.99 216.141 1637.81 217.954C1641.34 221.463 1640.9 226.008 1640.92 230.608C1653.26 221.953 1660.62 216.253 1675.95 214.648Z" fill="#F9F6F1"/>
<path d="M1502.67 215.397C1519.46 215.08 1552.03 213.486 1566.9 218.355C1575.17 221.066 1581.75 226.139 1585.66 234.02C1588.15 239.044 1589.49 244.771 1590.09 250.322C1590.96 258.2 1591.94 318.321 1590.34 322.677C1589.59 324.723 1588.22 326.306 1586.23 327.212C1583.84 328.298 1580.24 328.677 1577.76 327.689C1565.22 322.678 1576.26 258.867 1569.17 242.663C1566.95 237.61 1563.55 235.704 1558.71 233.788C1551.01 232.617 1538.1 232.933 1529.88 232.955C1518.88 257.525 1527.84 318.632 1522.92 325.809C1518.05 327.907 1491.52 328.337 1487.57 325.254C1485.74 322.578 1485.37 320.89 1485.45 317.61C1485.69 307.314 1498.8 309.681 1505.74 310.217C1504.88 289.374 1504.07 252.2 1511.3 234.027C1507.05 230.685 1495.46 237.348 1497.31 221.663C1497.71 218.241 1500.2 217.24 1502.67 215.397Z" fill="#F9F6F1"/>
<path d="M1371.94 215.417C1388.33 215.116 1428.82 213.658 1442.4 218.4C1450.72 221.302 1456.89 226.948 1460.64 234.925C1463.03 240.002 1464.33 245.601 1464.97 251.153C1465.98 259.846 1466.97 316.752 1464.81 322.363C1463.98 324.541 1462.61 326.335 1460.42 327.274C1457.96 328.33 1454.68 328.174 1452.24 327.136C1449.55 325.996 1447.95 324.099 1447.21 321.318C1445.82 316.135 1446.58 309.673 1446.65 304.305C1446.85 286.426 1449.69 257.258 1443.67 241.335C1435.22 229.109 1412.52 232.82 1398.73 232.874C1390.27 251.861 1393.93 281.864 1394.13 302.877C1394.2 309.649 1394.88 316.967 1392.61 323.462C1392.11 324.899 1390.64 326.311 1389.25 326.93C1386.43 328.191 1382.78 328.295 1379.9 327.144C1377.68 326.25 1376.36 324.611 1375.52 322.396C1372.99 315.83 1373.85 261.706 1375.14 252.485C1376.11 245.538 1378.23 239.445 1381.03 233.052C1379.69 233.065 1373.73 233.08 1372.86 232.721C1362.99 228.629 1363.64 220.018 1371.94 215.417Z" fill="#F9F6F1"/>
<path d="M701.973 214.699C757.395 215.973 749.116 248.277 749.444 292.421C749.487 298.328 749.251 304.391 749.145 310.31C752.116 310.226 756.287 309.689 759.117 310.513C761.839 311.306 765.017 314.39 766.265 316.858C766.841 317.997 767.251 320.048 766.852 321.28C766.121 323.535 764.605 324.829 762.475 325.789C758.237 327.697 670.096 328.063 666.03 326.255C663.203 324.997 662.407 322.23 661.382 319.549C662.107 316.25 662.302 314.31 664.484 311.656C669.262 308.301 720.757 310.09 731.056 310.185C730.398 290.485 731.152 270.503 730.282 251.224C729.311 229.703 706.082 230.172 690.698 232.942C686.185 233.754 667.955 239.319 665.323 235.542C651.687 215.979 691.346 215.281 701.973 214.699Z" fill="#F9F6F1"/>
<path d="M1220.75 189.047C1236.64 189.725 1233.13 204.006 1232.84 216.181C1251.34 216.267 1270.08 215.193 1288.51 216.31C1299.15 216.991 1299.63 229.511 1295.6 236.603C1288.45 249.151 1258.66 322.125 1250.48 327.788C1247.12 328.312 1243.69 328.3 1240.58 326.777C1239.14 326.073 1237.77 324.62 1237.27 323.09C1234.7 315.289 1271.17 245.396 1277.6 233.073C1266.76 232.783 1222.98 234.8 1216.71 230.793C1212.33 224.053 1214.65 205.756 1214.33 197.019C1214.21 193.744 1217.96 190.81 1220.75 189.047Z" fill="#F9F6F1"/>
<path d="M894.831 189.178C909.204 191.13 905.699 204.658 905.425 216.135C922.116 216.263 938.676 215.159 955.409 215.693C966.881 215.049 973.715 225.239 968.268 235.453C960.363 250.257 931.618 321.355 923.463 327.475C920.354 328.017 917.241 327.978 914.302 326.683C912.228 325.769 910.782 324.459 910.048 322.28C907.55 314.873 944.477 244.47 950.166 233.07C931.311 232.53 911.778 234.314 893.195 232.033C888.093 231.342 887.188 223.589 887.547 219.551C888.554 208.245 881.705 194.74 894.831 189.178Z" fill="#F9F6F1"/>
<path d="M783.672 215.55C797.707 216.027 811.752 216.15 825.792 215.918C837.202 215.688 847.983 215.248 859.745 215.618C868.792 215.902 872.87 224.658 866.948 231.56C865.312 233.467 857.121 233.158 854.134 233.189C846.382 252.074 849.239 299.231 848.846 322.476C845.148 331.973 828.132 331.826 830.013 309.534C832.179 283.87 824.656 257.548 837.23 233.047C827.378 232.725 781.945 234.858 777.611 230.7C775.494 226.848 776.047 222.95 777.008 218.841C779.287 216.568 780.628 216.379 783.672 215.55Z" fill="#F9F6F1"/>
<path d="M577.89 215.576C601.13 210.908 635.679 216.412 638.079 246.064C640.081 270.811 638.805 297.084 638.662 321.945C638.625 328.433 625.854 330.838 620.291 322.175C619.592 303.085 622.856 263.433 619.25 247.563C612.448 217.625 567.909 240.904 558.329 234.404C556.252 232.994 555.468 230.825 555.069 228.432C554.677 226.081 554.964 223.914 556.447 221.987C560.665 216.51 571.505 216.292 577.89 215.576Z" fill="#F9F6F1"/>
<path d="M1179.56 215.205C1183.45 215.075 1191.56 215.48 1191.96 220.223C1192.73 229.423 1194.81 272.994 1191.74 279.223C1189.16 281.874 1187.64 282.092 1184.14 283.079C1180.54 282.594 1177.84 281.661 1175.52 278.909C1172.18 271.303 1173.59 236.263 1174.08 226.047C1174.34 220.713 1175.57 218.445 1179.56 215.205Z" fill="#F9F6F1"/>
<path d="M1327.78 215.186C1330.91 215.171 1338.4 215.729 1338.89 219.984C1341.03 238.761 1340.38 259.005 1339.59 277.91C1339.52 279.67 1335.16 281.857 1333.75 282.627L1333.39 282.628C1328.84 282.629 1326.18 282.664 1322.87 279.34C1319.96 274.182 1321.33 227.838 1322.39 219.616C1322.59 218.057 1326.2 216.117 1327.78 215.186Z" fill="#F9F6F1"/>
<path d="M1352.4 396.06C1376.37 397.54 1370.4 422.728 1370.7 441.047C1362.99 441.369 1353.27 442.709 1347.12 437.631L1347.13 435.888C1352.08 432.609 1356.23 433.516 1362.04 433.974L1362.15 429.217C1362.29 422.217 1363.66 409.136 1359.04 404.32C1349.87 402.111 1346.15 405.444 1339.94 411.347C1339.83 416.072 1339.96 438.894 1337.97 440.937C1334.56 441.401 1335.79 441.704 1333.04 439.897C1330.75 435.537 1331.12 403.334 1331.87 398.253C1334.3 396.717 1333.62 397.17 1336.84 397.157C1341.29 399.705 1337.25 398.573 1339.57 402.694C1341.19 402.266 1346.19 397.818 1352.4 396.06Z" fill="#F9F6F1"/>
<path d="M892.003 397.075C917.91 395.555 933.946 392.738 931.674 425.484C931.348 430.083 933.303 441.15 927.705 442.493C918.466 437.112 926.384 417.446 921.724 405.587C915.486 403.993 910.824 404.067 904.445 403.932C903.666 415.47 904.045 429.327 904.209 441.016C900.4 441.284 893.23 441.891 889.531 440.936C888.285 440.616 888.09 439.169 887.464 437.651C888.774 434.796 891.44 434.395 894.982 432.482C896.409 429.892 896.194 409.617 896.297 404.862L892.65 402.838C891.036 400.264 891.582 400.795 892.003 397.075Z" fill="#F9F6F1"/>
<path d="M813.633 397.085C834.911 395.406 854.979 394.381 853.081 421.659C852.681 427.4 853.559 433.427 852.513 439.33C850.58 441.565 851.543 440.953 848.509 441.624C839.73 437.144 848.739 414.64 841.814 405.571C836.496 403.692 832.255 402.454 827.406 405.558C823.483 411.9 825.789 431.056 825.477 441.008C821.236 441.208 812.397 442.469 809.836 439.193C810.108 434.97 814.605 433.998 816.328 431.989C818.566 429.379 817.901 409.075 817.984 405.071C816.832 404.126 815.46 404.068 813.945 403.798C812.898 400.984 813.167 400.104 813.633 397.085Z" fill="#F9F6F1"/>
<path d="M577.866 397.035C587.549 397.002 604.9 395.173 612.831 401.521C619.647 406.975 620.398 437.087 615.517 442.102C612.812 442.135 613.333 441.915 610.656 440.359C606.215 431.29 614.73 414.118 606.542 405.033C601.891 403.74 595.961 402.162 592.044 405.456C588.105 411.804 590.433 432.231 590.672 441.067C588.763 441.174 586.853 441.258 584.943 441.319C580.383 441.445 576.989 441.326 573.419 437.953L575.464 435.257L573.935 435.927C576.795 433.665 579.195 433.697 582.777 433.287C582.237 422.957 583.261 415.096 582.956 405.055C577.549 402.761 578.199 402.319 577.866 397.035Z" fill="#F9F6F1"/>
<path d="M1511.3 397.064C1521.55 396.166 1530.14 396.622 1535.96 406.632C1546.21 424.253 1532.34 445.04 1512.12 441.829C1508.09 441.189 1505.12 440.387 1503.03 436.7C1507.86 430.222 1516.85 438.697 1528.27 429.804C1529.18 427.822 1530.2 424.567 1530.56 422.379C1531.41 417.443 1530.18 412.372 1527.15 408.377C1523.47 403.444 1516.79 400.656 1511.5 404.898C1508.95 406.914 1507.28 409.846 1506.86 413.075C1510.03 420.323 1518.38 416.071 1521.61 420.158C1519.31 425.415 1512.93 425.865 1507.97 424.46C1505.12 423.62 1502.73 421.662 1501.34 419.03C1496.36 409.499 1502.81 401.241 1511.3 397.064Z" fill="#F9F6F1"/>
<path d="M992.655 418.205C994.974 413.182 999.862 397.033 1006.36 396.76C1009.4 402.618 1000.57 418.122 997.869 423.478C1001.55 427.748 1006.98 433.016 1007.91 438.327C1006.7 441.508 1007.24 440.497 1003.79 442.631C996.873 436.667 989.619 424.405 982.18 416.584C980.364 423.93 978.017 437.585 971.983 442.17L970.559 441.893C966.508 435.664 974.46 417.783 977.356 411.233C972.868 406.17 968.082 402.95 971.304 396.318C979.041 397.444 987.506 411.311 992.655 418.205Z" fill="#F9F6F1"/>
<path d="M703.297 396.228L706.992 397.494C714.443 405.587 697.811 440.476 729.855 434.048C748.281 430.352 734.978 408.695 741.784 397.518C744.39 396.292 743.285 396.446 746.327 397.216C748.391 400.169 747.803 401.116 748.029 405.104C748.242 413.246 749.02 426.06 744.268 432.819C733.066 448.642 703.806 443.927 701.48 423.25C700.786 417.08 699.923 401.209 703.297 396.228Z" fill="#F9F6F1"/>
<path d="M1630.76 396.452C1644.35 399.473 1638.46 426.335 1647.83 432.441C1659.84 430.575 1652.72 404.398 1658.19 397.319C1660.76 396.598 1659.73 396.544 1662.27 397.823C1664.93 403.012 1663.44 416.074 1663.08 422.186C1661.62 428.079 1660.68 431.193 1656.2 435.529C1651.11 440.449 1633.6 448.355 1628.09 441.822L1628.86 439.756C1631.46 436.985 1635.11 436.585 1638.87 435.707C1637.03 426.336 1627.17 403.568 1630.76 396.452Z" fill="#F9F6F1"/>
<path d="M1119.97 397.144C1129.59 396.361 1145.4 396.863 1155.47 396.877C1156.81 405.998 1158.19 427.313 1152.92 434.93C1149.29 440.184 1146.69 440.443 1141.02 441.754C1139.01 441.634 1136.64 441.095 1134.65 440.704C1133.32 437.999 1133.68 438.892 1134.06 435.597C1138.39 432.477 1139.54 435.155 1145.11 432.249C1149.1 428.077 1147.3 412.079 1147.94 404.245C1142.22 404.234 1122.76 406.154 1119.32 402.476C1118.74 400.099 1119.11 399.464 1119.97 397.144Z" fill="#F9F6F1"/>
<path d="M762.754 397.054C773.948 396.491 787.403 397.131 798.768 397.399C798.827 402.757 799.017 408.374 799.096 413.716C799.317 428.671 800.19 438.275 783.141 441.709C780.055 441.395 778.103 440.662 776.237 438.408C778.842 432.204 791.044 434.983 790.831 424.709C790.701 418.411 790.295 410.295 791.162 404.147C782.582 404.035 771.504 405.942 764.115 403.447C761.923 400.853 762.597 401.11 762.754 397.054Z" fill="#F9F6F1"/>
<path d="M1074.78 385.219C1077.34 385.521 1077.66 385.697 1079.87 387.041C1081.74 389.748 1081.19 392.218 1080.94 395.489C1084.95 400.465 1104.39 393.68 1106 398.897C1107.67 404.278 1091.07 436.837 1088.58 441.636C1085.31 441.277 1084.59 441.713 1082.15 439.889C1082.16 433.938 1094.62 411.861 1098.12 404.134L1073.78 404.301C1073.5 399.301 1072.39 389.336 1074.78 385.219Z" fill="#F9F6F1"/>
<path d="M1381.65 397.041C1388.72 396.461 1408.97 395.661 1415.54 398.067C1417.59 398.821 1417.72 400.085 1418.2 401.795C1416.06 405.786 1415.86 402.585 1411.29 405.629C1409.88 412.085 1410.57 431.805 1410.67 439.531C1409.37 441.07 1408.19 441.289 1406.28 441.936C1398.6 439.076 1403.08 411.087 1404.31 404.512C1399.6 402.897 1386.02 406.782 1381.4 402.697C1380.56 399.332 1380.66 400.587 1381.65 397.041Z" fill="#F9F6F1"/>
<path d="M1585.32 397.054C1605.74 395.846 1614.08 395.237 1615.16 419.611C1615.43 425.673 1616.17 434.618 1614.21 440.247C1611.37 441.902 1610.92 441.303 1607.28 441.153C1606.68 431.447 1608.39 422.042 1606.86 412.494C1604.11 395.338 1582.72 410.132 1576.45 403.372C1577.92 399.048 1581.37 397.937 1585.32 397.054Z" fill="#F9F6F1"/>
<path d="M1309.81 395.617C1310.97 396.153 1311.92 396.921 1312.96 397.676C1316 405.615 1314.82 438.976 1314.6 449.145C1314.51 453.497 1312.92 454.266 1310.12 456.629C1309.14 455.969 1307.93 454.968 1306.97 454.22C1304.21 447.891 1305.35 410.272 1305.89 401.032C1306.07 397.871 1307.66 397.186 1309.81 395.617Z" fill="#F9F6F1"/>
<path d="M1459.31 397.006C1480.02 395.31 1486.92 399.199 1486.66 421.332C1486.58 427.276 1487.97 434.403 1486.12 440.174C1484.1 442.025 1482.5 441.614 1479.35 441.95C1477.6 437.571 1479.6 416.894 1478.95 410.986C1477.9 401.57 1458.07 406.738 1452.32 402.709L1452.34 400.233C1454.48 398.489 1456.72 397.898 1459.31 397.006Z" fill="#F9F6F1"/>
<path d="M638.955 397.171C643.713 396.985 652.688 397.046 656.622 399.426C663.835 403.792 665.016 434.944 661.534 440.562C658.264 442.028 658.409 441.49 654.589 441.095C654.316 431.439 655.352 419.258 654.473 410.02C653.459 399.355 635.609 407.809 630.234 404.175C629.214 401.268 629.214 402.359 629.838 399.546C632.324 397.807 635.88 397.616 638.955 397.171Z" fill="#F9F6F1"/>
<path d="M1705.97 396.063L1717.55 396.943C1719.69 406.906 1722.23 429.581 1714.84 437.836C1711.49 441.577 1706.72 441.493 1702.07 441.653C1699.68 440.744 1699.37 440.212 1697.83 438.109C1699.07 433.125 1707.55 434.617 1708.74 432.158C1711.09 427.31 1710.28 409.989 1710.13 405.04C1706.06 403.524 1703.11 404.959 1701.89 399.703C1703.4 396.716 1702.59 397.656 1705.97 396.063Z" fill="#F9F6F1"/>
<path d="M1022.3 397.287C1026.33 396.858 1032.31 396.114 1035.87 397.954C1037.79 403.087 1037.94 415.582 1037.79 421.366C1037.48 433.896 1036.22 439.702 1023.49 441.728C1020.46 441.366 1017.3 441.318 1016.87 437.849C1018.96 434.461 1024.98 434.68 1026.45 432.434C1030.03 426.994 1029.39 416.02 1029.25 409.727C1029.05 400.944 1026.65 406.765 1021.93 402.488C1021.27 400.033 1021.41 399.693 1022.3 397.287Z" fill="#F9F6F1"/>
<path d="M1233.18 402.245C1238.92 401.204 1244.45 404.877 1245.72 410.568C1246.99 416.261 1243.54 421.941 1237.91 423.439C1234.06 424.463 1229.96 423.296 1227.22 420.397C1224.48 417.499 1223.56 413.334 1224.8 409.546C1226.05 405.759 1229.26 402.957 1233.18 402.245Z" fill="#F9F6F1"/>
<path d="M1121.54 413.075C1123.51 413.235 1124.18 413.499 1125.99 414.102C1130 419.23 1130.2 450.778 1126.15 456.16C1114.47 454.491 1120.36 434.168 1119.62 425.462C1119.38 422.55 1120.31 415.821 1121.54 413.075Z" fill="#F9F6F1"/>
<path d="M1679.13 396.539C1682.62 396.925 1683.21 396.397 1685.57 398.479C1687.17 404.209 1687.15 435.42 1685.95 441.653C1683.3 441.684 1682.77 441.61 1680.19 440.981C1677.32 436.75 1678.7 403.496 1679.13 396.539Z" fill="#F9F6F1"/>
<path d="M678.953 396.533C682.441 396.924 682.77 396.364 685.014 398.502C685.757 405.036 686.497 437.001 684.379 442.073C681.786 441.678 680.601 441.705 678.736 439.918C677.101 434.819 677.399 401.52 678.953 396.533Z" fill="#F9F6F1"/>
<path d="M765.868 413.035C767.726 413.459 768.248 413.899 769.784 414.912C772.248 420.566 772.797 451.449 768.789 456.436C767.52 456.025 766.147 455.357 764.917 454.807C761.468 449.157 761.465 418.104 765.868 413.035Z" fill="#F9F6F1"/>
<path d="M1580.47 413.12C1582.48 413.503 1583.17 413.915 1584.98 414.797C1587.78 419.077 1588.31 438.562 1584.88 442.453C1582.63 442.062 1582.08 442.027 1580.05 440.914C1576.46 435.501 1577.17 418.354 1580.47 413.12Z" fill="#F9F6F1"/>
<path d="M721.782 396.442C725.475 396.929 724.746 396.322 727.22 398.362C730.133 405.003 729.38 420.052 727.21 426.795L724.346 426.725C718.347 423.045 719.906 402.336 721.782 396.442Z" fill="#F9F6F1"/>
<path d="M1435.95 395.719L1438.8 397.222C1442.35 403.583 1442.46 419.194 1437.1 425.057C1436.1 424.535 1434.88 423.722 1433.9 423.106C1430.59 416.819 1430.51 401.184 1435.95 395.719Z" fill="#F9F6F1"/>
<path d="M947.122 396.483C947.932 396.514 950.688 396.625 951.2 396.903C957.262 400.194 955.055 419.902 953.183 424.319C950.753 424.111 949.58 424.231 947.867 422.519C944.431 416.371 945.827 403.303 947.122 396.483Z" fill="#F9F6F1"/>
<path d="M1053.41 396.366C1053.92 396.43 1056.18 396.736 1056.5 396.889C1062.63 399.82 1061.07 418.991 1059.1 424.115C1056.5 423.922 1056.17 423.873 1054.03 422.4C1050.25 416.218 1052.34 403.375 1053.41 396.366Z" fill="#F9F6F1"/>
</svg>
